<svg width="232" height="32" viewBox="0 0 232 32" fill="none" xmlns="http://www.w3.org/2000/svg">
<g clip-path="url(#clip0_196_10302)">
<path d="M50.5475 26.9243C45.957 26.9523 41.8029 24.2069 40.0271 19.9721C38.2513 15.7373 39.2036 10.8494 42.4403 7.59219C45.6763 4.335 50.5568 3.35243 54.8006 5.10338C59.0444 6.85433 61.8136 10.9932 61.8136 15.5854C61.8242 21.8252 56.7849 26.8969 50.5475 26.9243ZM50.5475 -2.93327e-05C44.2466 -0.0330309 38.5476 3.73911 36.1139 9.55299C33.6795 15.3675 34.991 22.0761 39.4346 26.545C43.8787 31.014 50.578 32.3608 56.4027 29.956C62.2275 27.5513 66.0275 21.87 66.0275 15.5667C66.0275 7.00066 59.1097 0.044803 50.5475 -2.93327e-05Z" fill="#AEAEAE"/>
<path d="M108.029 0.896787C107.886 0.898032 107.754 0.973376 107.681 1.09604L91.7277 22.7961L75.7747 1.09604C75.7 0.971507 75.5649 0.895542 75.4199 0.896787C75.1883 0.896787 74.9997 1.08234 74.9966 1.31398V30.2246H79.2167V13.1509L91.4788 29.714C91.5404 29.7881 91.6312 29.8311 91.7277 29.8311C91.8242 29.8311 91.9151 29.7881 91.9767 29.714L104.239 13.1509V30.2246H108.459V1.31398C108.457 1.2019 108.411 1.0948 108.331 1.01634C108.25 0.937883 108.141 0.894919 108.029 0.896787Z" fill="#AEAEAE"/>
<path d="M134.258 15.467H124.424V5.13065H134.258C137.108 5.13065 139.418 7.442 139.418 10.2926C139.418 13.1432 137.108 15.4545 134.258 15.4545V15.467ZM134.258 0.884033H120.191V30.2118H124.412V19.7136H134.246C139.44 19.7136 143.651 15.5012 143.651 10.305C143.651 5.10885 139.44 0.896487 134.246 0.896487" fill="#AEAEAE"/>
<path d="M15.7036 26.9247C10.3855 26.9546 5.76139 23.2815 4.58561 18.0934C3.40983 12.9047 5.99791 7.59579 10.8093 5.32864C15.6201 3.06088 21.3602 4.44507 24.6106 8.65557L27.6419 5.66053C23.4585 0.60444 16.5544 -1.28412 10.3817 0.940059C4.20841 3.16424 0.0934916 9.02233 0.0934916 15.5859C0.0934916 22.1495 4.20841 28.0076 10.3817 30.2317C16.5544 32.4559 23.4585 30.5674 27.6419 25.5113L24.6106 22.5162C22.4912 25.2946 19.1973 26.9247 15.7036 26.9247Z" fill="#AEAEAE"/>
<path d="M193.682 12.8829L190.452 12.1481C186.979 11.4009 186.717 9.03477 186.717 8.29379C186.717 5.89651 188.628 4.5204 191.958 4.5204C195.382 4.5204 197.884 6.84297 198.649 7.63376L201.618 4.71343C198.83 1.78688 195.674 0.354736 191.958 0.354736C186.3 0.354736 182.497 3.53658 182.497 8.27511C182.497 9.78197 182.497 14.3648 190.103 16.2391L193.639 17.0735C196.919 17.9763 198.512 19.5641 198.512 21.9178C198.512 24.6763 195.855 26.6003 192.058 26.6003C187.993 26.6003 185.491 23.8045 184.744 22.8643L181.813 25.7535C183.811 28.0325 187.222 30.7348 192.101 30.7348C198.183 30.7348 202.77 26.9366 202.77 21.9054C202.77 17.3972 199.658 14.2714 193.713 12.8704" fill="#AEAEAE"/>
<path d="M222.084 12.8829L218.854 12.1481C215.38 11.4009 215.119 9.03476 215.119 8.29378C215.119 5.8965 217.03 4.5204 220.36 4.5204C223.783 4.5204 226.285 6.84296 227.045 7.63375L230.02 4.71343C227.232 1.78688 224.07 0.354736 220.36 0.354736C214.702 0.354736 210.899 3.53658 210.899 8.2751C210.899 9.78197 210.899 14.3648 218.505 16.2391L222.059 17.0548C225.333 17.9576 226.927 19.5454 226.927 21.8991C226.927 24.6576 224.275 26.5816 220.478 26.5816C216.414 26.5816 213.905 23.7858 213.164 22.8456L210.189 25.7659C212.187 28.0449 215.598 30.7473 220.478 30.7473C226.559 30.7473 231.147 26.949 231.147 21.9178C231.147 17.4097 228.035 14.2839 222.09 12.8829" fill="#AEAEAE"/>
<path d="M155.963 18.4623L160.793 9.24679L165.629 18.4623H155.963ZM160.793 0.635254C160.627 0.636499 160.477 0.733636 160.407 0.884322L145.027 30.2246H149.801L153.735 22.7089H167.845L171.785 30.2246H176.553L161.179 0.884322C161.108 0.734881 160.959 0.638367 160.793 0.635254Z" fill="#AEAEAE"/>
<path d="M43.8938 19.2525L46.8752 22.2537L57.1952 11.8738L54.2075 8.87256L43.8938 19.2525Z" fill="#AEAEAE"/>
</g>
<defs>
<clipPath id="clip0_196_10302">
<rect width="231.053" height="31.1533" fill="white" transform="translate(0.0933838)"/>
</clipPath>
</defs>
</svg>
 
