<svg width="217" height="41" viewBox="0 0 217 41" fill="none" xmlns="http://www.w3.org/2000/svg">
<g clip-path="url(#clip0_196_10313)">
<path fill-rule="evenodd" clip-rule="evenodd" d="M25.8208 7.60474L16.101 18.2945L0.837189 10.5821V15.2095L2.88916 16.2857V32.3204L19.0529 40.4992L35.2527 32.3563V16.8955L37.3047 17.8999V13.3801L25.8208 7.60474ZM32.2647 29.3789L19.0889 35.9076L6.9211 29.8811V18.151L17.037 23.2448L26.7928 12.5909L32.2287 15.353L32.2647 29.3789Z" fill="#AEAEAE"/>
<path fill-rule="evenodd" clip-rule="evenodd" d="M7.85703 7.74782V2.97687L10.557 -0.000488281L14.8409 2.15182V6.31295L11.781 9.72077L7.85703 7.74782Z" fill="#AEAEAE"/>
<path fill-rule="evenodd" clip-rule="evenodd" d="M24.4523 33.5394V25.9346L28.4843 23.9258V31.5306L24.4523 33.5394Z" fill="#AEAEAE"/>
<path fill-rule="evenodd" clip-rule="evenodd" d="M151.459 31.029C151.459 32.2127 150.487 33.1453 149.335 33.1453C148.147 33.1453 147.211 32.1768 147.211 31.029C147.211 29.8452 148.183 28.9126 149.335 28.9126C150.523 28.9126 151.459 29.8452 151.459 31.029Z" fill="#AEAEAE"/>
<path d="M43.5324 8.9314H47.7084V18.3657H58.5442V8.9314H62.7201V32.6785H58.5442V21.9887H47.7084V32.6785H43.5324V8.9314Z" fill="#AEAEAE"/>
<path d="M64.7716 24.0697C64.7716 18.8324 67.9396 15.03 73.4835 15.03C79.0274 15.03 82.1953 18.8324 82.1953 24.0697C82.1953 29.3429 79.0274 33.1453 73.4835 33.1453C67.9396 33.1453 64.7716 29.3429 64.7716 24.0697ZM78.3794 24.0697C78.3794 21.1282 76.8674 18.0074 73.4835 18.0074C70.0635 18.0074 68.5876 21.0924 68.5876 24.0697C68.5876 27.0471 70.0995 30.1679 73.4835 30.1679C76.8674 30.1321 78.3794 27.0471 78.3794 24.0697Z" fill="#AEAEAE"/>
<path d="M84.3559 15.4964H87.9558V17.8998H88.0638C89.2158 16.2138 90.6198 15.03 93.3557 15.03C95.4437 15.03 97.4236 15.9268 98.1796 17.8998C99.4396 16.1421 101.096 15.03 103.58 15.03C107.215 15.03 109.339 16.6084 109.339 20.8054V32.679H105.524V22.6349C105.524 19.9086 105.344 18.0074 102.392 18.0074C99.8356 18.0074 98.7196 19.6934 98.7196 22.599V32.679H94.9037V21.6304C94.9037 19.2629 94.1837 18.0074 91.8797 18.0074C89.8998 18.0074 88.0998 19.5858 88.0998 22.4555V32.6431H84.2839V15.4964H84.3559Z" fill="#AEAEAE"/>
<path d="M115.351 25.0741C115.351 27.7645 116.827 30.1679 119.995 30.1679C122.191 30.1679 123.523 29.1994 124.207 27.2982H127.807C126.979 31.0647 123.775 33.1453 119.995 33.1453C114.595 33.1453 111.572 29.3787 111.572 24.1056C111.572 19.227 114.775 15.03 119.923 15.03C125.359 15.03 128.707 19.9086 128.059 25.0741H115.351ZM124.207 22.5631C124.063 20.1597 122.443 18.0074 119.887 18.0074C117.259 18.0074 115.459 20.0162 115.351 22.5631H124.207Z" fill="#AEAEAE"/>
<path d="M132.775 27.1544C132.991 29.3426 134.647 30.1318 136.663 30.1318C138.103 30.1318 140.587 29.8448 140.515 27.8719C140.407 25.8631 137.635 25.6478 134.863 25.0021C132.055 24.3923 129.319 23.4238 129.319 19.9083C129.319 16.1418 133.387 14.9939 136.519 14.9939C140.047 14.9939 143.251 16.4646 143.719 20.2671H139.759C139.435 18.4735 137.923 17.9713 136.267 17.9713C135.151 17.9713 133.135 18.2224 133.135 19.729C133.135 21.5943 135.943 21.8454 138.751 22.4911C141.523 23.1368 144.331 24.1053 144.331 27.5132C144.331 31.6025 140.191 33.1092 136.627 33.1092C132.307 33.1092 129.067 31.1721 128.995 27.1186H132.775V27.1544Z" fill="#AEAEAE"/>
<path d="M166.651 20.913C166.075 18.3661 164.527 16.7878 161.791 16.7878C157.759 16.7878 155.743 20.4467 155.743 24.1057C155.743 27.7646 157.759 31.4235 161.791 31.4235C164.383 31.4235 166.543 29.3788 166.795 26.545H168.883C168.307 30.6702 165.607 33.1813 161.791 33.1813C156.535 33.1813 153.655 29.0201 153.655 24.1057C153.655 19.1912 156.535 15.03 161.791 15.03C165.463 15.03 168.307 17.003 168.775 20.913H166.651Z" fill="#AEAEAE"/>
<path d="M186.235 24.1057C186.235 29.0201 183.355 33.1813 178.099 33.1813C172.843 33.1813 169.963 29.0201 169.963 24.1057C169.963 19.1912 172.843 15.03 178.099 15.03C183.355 15.03 186.235 19.1912 186.235 24.1057ZM172.051 24.1057C172.051 27.7646 174.067 31.4235 178.099 31.4235C182.131 31.4235 184.147 27.7646 184.147 24.1057C184.147 20.4467 182.131 16.7878 178.099 16.7878C174.031 16.7878 172.051 20.4467 172.051 24.1057Z" fill="#AEAEAE"/>
<path d="M188.358 15.5322H190.302V18.4378H190.41C191.526 16.3932 193.326 15.03 196.062 15.03C198.33 15.03 200.382 16.1421 200.994 18.402C202.038 16.1421 204.198 15.03 206.466 15.03C210.246 15.03 212.153 17.003 212.153 21.0565V32.679H210.066V21.1282C210.066 18.2944 208.986 16.7877 205.998 16.7877C202.362 16.7877 201.318 19.7651 201.318 22.9577V32.679H199.23V21.0565C199.266 18.7248 198.294 16.7877 195.63 16.7877C191.994 16.7877 190.518 19.514 190.482 23.1012V32.679H188.394V15.5322H188.358Z" fill="#AEAEAE"/>
<path d="M216.833 15.0652C216.833 16.2131 215.897 17.1457 214.709 17.1457C213.521 17.1457 212.585 16.2131 212.585 15.0652C212.585 13.9173 213.521 12.9846 214.745 12.9846C215.897 12.9846 216.833 13.9173 216.833 15.0652ZM213.125 15.0652C213.125 15.9978 213.809 16.7153 214.745 16.7153C215.645 16.7153 216.329 15.9978 216.329 15.0652C216.329 14.1325 215.645 13.4151 214.709 13.4151C213.809 13.4151 213.125 14.1684 213.125 15.0652ZM214.385 16.1413H213.917V14.0608C214.097 14.0249 214.385 13.989 214.709 13.989C215.105 13.989 215.285 14.0608 215.429 14.1684C215.573 14.2401 215.645 14.4195 215.645 14.5988C215.645 14.85 215.465 15.0293 215.213 15.1011V15.1369C215.429 15.2087 215.501 15.3522 215.573 15.6391C215.645 15.962 215.681 16.0696 215.717 16.1413H215.213C215.141 16.0696 215.105 15.8902 215.033 15.6391C214.997 15.4239 214.853 15.3163 214.601 15.3163H214.385V16.1413ZM214.421 14.9934H214.637C214.889 14.9934 215.105 14.9217 215.105 14.7065C215.105 14.5271 214.961 14.3836 214.673 14.3836C214.565 14.3836 214.457 14.3836 214.421 14.4195V14.9934Z" fill="#AEAEAE"/>
</g>
<defs>
<clipPath id="clip0_196_10313">
<rect width="215.996" height="40.4993" fill="white" transform="translate(0.83728)"/>
</clipPath>
</defs>
</svg>
