<svg width="214" height="40" viewBox="0 0 214 40" fill="none" xmlns="http://www.w3.org/2000/svg">
<g clip-path="url(#clip0_196_10292)">
<path d="M16.0506 20.7838C14.6885 20.7838 14.0056 19.6953 13.5974 18.7403C13.1891 17.7853 13.3265 16.9713 12.3726 16.9713C11.4188 16.9713 9.10288 19.8288 8.69462 23.6432C8.69462 24.0531 8.55735 26.638 8.55735 28.001V32.0862C8.55735 33.5826 8.42369 35.4889 8.69462 36.5774C8.96556 38.0776 9.37568 38.213 10.465 38.7581C10.8732 38.8935 11.0105 39.0289 11.2815 39.0289V39.1661H0.926758V39.0289C1.19769 39.0289 1.33681 38.8935 1.74321 38.7581C2.96982 38.213 3.24262 38.0776 3.51355 36.5774C3.78634 35.4889 3.65089 33.5826 3.65089 32.0862V22.4175V17.9244C3.51356 16.8341 3.24076 16.5633 2.69705 16.1535C2.14962 15.7455 1.60592 15.7455 1.19581 15.6102V15.4729H8.14536C8.41815 15.4729 8.41815 15.6102 8.41815 15.7455V22.0096C9.09733 19.2855 10.4612 17.5146 11.2777 16.6987C12.0961 15.8827 13.46 14.9296 15.2304 14.9296C16.0469 14.9296 17.0007 15.2004 17.6818 15.8828C18.0919 16.2926 18.5001 17.1067 18.5001 18.197C18.6374 19.5563 17.8228 20.7838 16.0506 20.7838ZM37.9886 25.4123H23.4084C23.4084 31.9471 24.2249 35.2163 25.8616 37.1226C27.0864 38.6191 28.313 38.8917 29.9478 38.8917C34.4442 38.8917 36.7601 35.2163 37.7158 31.4037H37.9886C37.0329 36.1676 33.9004 39.4368 29.1313 39.4368C26.4053 39.4368 23.4084 38.7563 21.3634 36.5756C19.183 34.1259 18.3665 31.2666 18.3665 27.3186C18.3665 19.8289 22.5901 14.9278 28.5858 14.9278C35.398 14.9278 38.3968 19.5563 38.3968 23.914C38.1222 24.3238 38.1222 24.8671 37.9886 25.4123ZM31.4473 16.2907C30.4934 15.3357 29.6769 15.065 28.3148 15.065C27.0882 15.065 26.2699 15.3357 25.4534 16.2907C24.2268 17.6518 23.5476 20.6485 23.4084 25.0044H31.4473C33.0821 25.0044 33.2194 25.0044 33.2194 22.5529C33.0802 19.2855 32.2656 17.1048 31.4473 16.2907ZM54.61 39.4368C53.2479 39.4368 52.1586 39.4369 51.613 39.0271C50.932 38.6172 50.3883 37.5287 50.5219 35.4871C49.9782 37.3934 48.0723 39.4368 44.528 39.4368C41.2583 39.4368 38.3968 37.5306 38.3968 33.5808C38.3968 32.0843 38.8051 30.8586 39.7589 30.0427C41.5292 28.409 43.8451 28.2718 46.161 27.3186C49.2952 26.0929 50.7947 24.5946 50.7947 22.9609V18.7403C50.7947 15.7455 49.9782 15.2003 47.6623 15.2003C46.4357 15.2003 45.7546 15.4711 45.209 16.0163C44.6653 16.5615 44.3925 17.7853 44.3925 19.4209C44.3925 21.1899 43.4387 21.8705 41.9412 21.8705C40.7146 21.8705 39.7607 21.19 39.7607 19.827C39.7607 18.8739 40.0317 18.1933 40.7145 17.5128C41.9412 16.0144 45.3482 15.0631 47.6641 15.0631C51.7522 15.0631 55.7029 16.5615 55.7029 20.5094C55.7029 22.2803 55.5656 31.1312 55.5656 34.3986C55.5656 36.8482 55.5656 37.666 56.1131 38.2111C56.2704 38.3792 56.4598 38.5141 56.6701 38.6077C56.8805 38.7014 57.1076 38.7519 57.3378 38.7563C57.8834 38.7563 58.2916 38.6191 58.8372 38.3465V38.4837C58.1524 38.8917 56.3821 39.4368 54.61 39.4368ZM46.9812 27.3186C45.48 28.1346 44.799 28.6797 44.2552 29.4975C43.7097 30.4506 43.3014 31.9471 43.3014 33.4473C43.3014 36.5774 44.5262 38.3484 46.7084 38.3484C47.1167 38.3484 47.6623 38.3483 48.0687 38.0776C49.2953 37.5324 50.3864 35.6262 50.3864 33.8571V24.5983C49.7054 25.8203 48.4788 26.5009 46.9812 27.3186ZM58.1525 38.8917C58.4253 38.7563 58.8335 38.6191 59.1082 38.4837C60.062 38.0739 60.4702 37.8032 60.743 36.303C61.0139 35.2145 61.0139 33.4454 61.0139 31.8099V7.70874C61.0139 6.7556 61.0139 4.17062 60.8785 3.21748C60.743 2.12712 60.4702 1.7173 59.9228 1.44656C59.3791 1.03675 58.8335 1.03674 58.4253 0.901367H65.3729C65.6439 0.901367 65.6439 0.901383 65.6439 1.3112V32.0843C65.6439 33.5808 65.6439 35.3517 65.7812 36.5756C66.0521 38.0757 66.4622 38.3465 67.687 38.7563C67.9598 38.8917 68.0971 38.8917 68.368 39.0271V39.1643H58.1488V38.8917H58.1525Z" fill="#AEAEAE"/>
<path d="M83.36 35.8942C82.5435 37.6651 80.0884 39.436 77.637 39.436C75.4566 39.436 74.0945 39.1634 72.8698 37.9358C71.9159 36.9827 71.3685 35.8923 71.3685 33.8526C71.3685 32.764 71.5059 18.3315 71.6413 15.6075C70.8248 15.6075 69.19 15.6075 68.3697 15.4703V15.3349C71.7768 14.519 73.9572 12.7462 76.2749 5.2583H76.4086V15.1977H81.8606V15.4684H76.4086L76.1377 35.349C76.1377 37.3925 76.6832 38.6164 78.9991 38.6164C80.9068 38.6164 82.4062 37.1199 83.0872 35.7588L83.36 35.8942ZM92.7627 39.436C87.3126 39.436 81.4523 34.6703 81.4523 27.1806C81.4523 19.6945 87.3126 14.9288 92.7627 14.9288C98.2148 14.9288 104.209 19.5573 104.209 27.1806C104.209 34.6703 98.3484 39.436 92.7627 39.436ZM96.4426 16.696C95.3514 15.3349 93.9894 15.0623 92.7627 15.0623C91.5361 15.0623 90.1722 15.4703 89.2202 16.5606C87.5854 18.3316 86.6316 22.8228 86.6316 27.0452C86.6316 31.403 87.5854 35.6216 89.2202 37.5279C90.3114 38.889 91.6735 39.1635 92.8982 39.1635C94.1248 39.1635 95.3514 38.8908 96.5762 37.5279C98.0774 35.7588 99.1667 31.4011 99.1667 27.0452C99.0312 22.8228 98.0774 18.6041 96.4426 16.696ZM118.377 20.783C117.017 20.783 116.334 19.6945 115.927 18.7395C115.517 17.7845 115.655 16.9704 114.699 16.9704C113.745 16.9704 111.429 19.828 111.021 23.6424C111.021 24.0522 110.887 26.6372 110.887 28.0002V32.0853C110.887 33.5818 110.75 35.4881 111.021 36.5766C111.294 38.0768 111.702 38.2121 112.793 38.7573C113.203 38.8927 113.337 39.028 113.61 39.028V39.1653H103.39V39.028C103.661 39.028 103.8 38.8927 104.207 38.7573C105.433 38.2121 105.706 38.0768 105.977 36.5766C106.25 35.4881 106.114 33.5818 106.114 32.0853V22.4167V17.9236C105.977 16.8332 105.704 16.5625 105.161 16.1527C104.613 15.7447 104.069 15.7447 103.659 15.6093V15.4721H110.609C110.882 15.4721 110.882 15.6093 110.882 15.7447V22.0088C111.561 19.2847 112.925 17.5138 113.741 16.6978C114.56 15.8819 115.924 14.9288 117.694 14.9288C118.51 14.9288 119.464 15.1995 120.145 15.8819C120.555 16.2918 120.964 17.1058 120.964 18.1962C120.969 19.5554 120.149 20.783 118.377 20.783ZM120.969 39.844C119.333 39.844 117.97 38.6183 117.97 36.8492C117.97 35.0801 119.333 33.8544 120.969 33.8544C122.604 33.8544 123.964 34.9429 123.964 36.8492C123.829 38.6183 122.604 39.844 120.969 39.844ZM136.637 39.436C133.64 39.436 130.914 38.2103 129.144 36.4412C126.826 34.1251 126.009 30.8559 126.009 26.908C126.009 19.4201 131.732 14.927 136.774 14.927C140.181 14.927 142.768 16.1508 143.724 17.3766C144.54 18.3316 144.948 19.1456 144.948 19.9652C144.948 21.7343 143.724 22.4149 142.633 22.4149C140.727 22.4149 140.044 21.1891 139.907 19.42C139.498 16.2899 138.953 15.1995 136.637 15.1995C135.683 15.1995 134.185 15.6093 133.365 16.5606C132.14 18.059 131.459 21.5989 131.459 25.9548C131.459 31.4029 132.14 34.941 133.504 36.9827C134.594 38.4829 135.956 38.889 137.182 38.889C142.224 38.889 144.405 34.5313 145.221 31.2639H145.492C144.13 35.8942 141.269 39.436 136.637 39.436ZM156.532 39.436C151.08 39.436 145.221 34.6703 145.221 27.1806C145.221 19.6945 151.08 14.9288 156.532 14.9288C161.982 14.9288 167.976 19.5573 167.976 27.1806C167.976 34.6703 161.98 39.436 156.532 39.436ZM160.21 16.696C159.118 15.3349 157.756 15.0623 156.532 15.0623C155.305 15.0623 153.941 15.4703 152.989 16.5606C151.352 18.3316 150.399 22.8228 150.399 27.0452C150.399 31.403 151.352 35.6216 152.989 37.5279C154.078 38.889 155.441 39.1635 156.667 39.1635C157.892 39.1635 159.118 38.8908 160.345 37.5279C161.844 35.7588 162.934 31.4011 162.934 27.0452C162.663 22.8228 161.709 18.6041 160.21 16.696ZM195.226 38.8909C195.499 38.7555 195.637 38.6183 196.043 38.4829C197.134 38.0731 197.542 37.8024 197.815 36.3022C198.086 35.2137 198.086 33.4446 198.086 31.8091V22.1404C198.086 19.5536 197.815 18.3297 197.27 17.5119C196.589 16.5588 195.635 16.0136 194.273 16.0136C191.819 16.0136 188.958 18.1925 188.55 22.413C188.55 23.2289 188.414 24.182 188.414 25.2724V31.6718C188.414 33.1702 188.277 34.9392 188.55 36.165C188.821 37.6633 189.231 37.934 190.32 38.3438C190.73 38.481 190.866 38.6145 191.138 38.6145V38.7518H180.782V38.6145C181.055 38.6145 181.192 38.481 181.598 38.3438C182.689 37.934 183.098 37.6633 183.37 36.165C183.641 35.0764 183.641 33.3055 183.641 31.6718V22.005C183.641 19.4163 183.371 18.1906 182.688 17.3747C182.007 16.4216 181.053 15.8764 179.691 15.8764C176.965 15.8764 174.376 18.1906 173.968 22.4111C173.83 23.7722 173.83 25.4059 173.83 27.0415V31.5327C173.83 33.0329 173.695 34.9374 173.968 36.0277C174.239 37.5261 174.649 37.6614 175.873 38.2066L176.69 38.4792V38.6127H166.335V38.4792C166.606 38.4792 166.745 38.3419 167.152 38.2066C168.378 37.7986 168.651 37.5261 168.924 36.0277C169.195 34.9374 169.195 33.0329 169.195 31.5327V22.0032C169.195 21.0482 169.195 18.3278 169.059 17.5082C168.924 16.4197 168.649 16.1471 168.106 15.7391C167.56 15.3293 167.014 15.3293 166.604 15.194V15.0586H173.554C173.825 15.0586 173.825 15.0586 173.825 15.3293L173.689 20.7775C174.37 18.3278 175.597 16.9649 176.824 16.0117C177.777 15.3312 179.548 14.5134 181.455 14.5134C183.907 14.5134 185.679 15.194 186.633 16.4179C187.178 17.0984 188.132 18.5986 188.132 20.9128C188.813 18.326 190.177 16.8277 191.404 16.0099C192.629 15.0568 194.536 14.5116 195.9 14.5116C198.897 14.5116 200.396 15.4647 201.213 16.5551C201.894 17.371 202.575 18.8693 202.575 21.7287V31.5309C202.575 33.031 202.575 34.8001 202.848 36.0259C203.119 37.5242 203.529 37.7968 204.618 38.2047L205.435 38.4773V38.6109H195.215V38.8909H195.226ZM209.398 19.828C208.853 19.828 208.307 19.6945 207.764 19.5573C207.218 19.2865 206.808 19.0139 206.537 18.7414C206.127 18.3334 205.856 17.9254 205.72 17.5156C205.448 16.9723 205.448 16.5625 205.448 15.8819C205.448 15.3368 205.585 14.7916 205.72 14.2482C205.991 13.703 206.264 13.2951 206.537 12.8871C206.945 12.4773 207.353 12.2066 207.899 12.0694C208.443 11.7986 208.988 11.7986 209.534 11.7986C210.079 11.7986 210.625 11.9359 211.169 12.0694C211.714 12.342 212.124 12.6164 212.395 12.8871C212.805 13.297 213.076 13.7031 213.212 14.111C213.483 14.6581 213.483 15.066 213.483 15.7466C213.483 16.2917 213.347 16.8351 213.212 17.3803C212.941 17.9254 212.666 18.3353 212.395 18.7414C212.124 19.1475 211.579 19.4219 211.033 19.5573C210.488 19.828 209.944 19.828 209.398 19.828ZM209.398 19.42C209.944 19.42 210.352 19.2847 210.898 19.1475C211.306 19.014 211.714 18.7395 211.987 18.3334C212.26 18.0608 212.533 17.6528 212.805 17.243C212.941 16.8332 213.076 16.2899 213.076 15.8819C213.076 15.3368 212.941 14.9288 212.805 14.5208C212.659 14.0777 212.372 13.6947 211.987 13.4305C211.716 13.1597 211.306 12.8871 210.898 12.6164C210.488 12.4792 209.944 12.3438 209.536 12.3438C208.99 12.3438 208.582 12.4792 208.036 12.6164C207.593 12.7602 207.209 13.0464 206.945 13.4305C206.674 13.7031 206.401 14.111 206.129 14.5208C205.993 14.9306 205.858 15.474 205.858 15.8819C205.858 16.4253 205.993 16.8351 206.129 17.243C206.264 17.651 206.539 18.0589 206.945 18.3334C207.218 18.6041 207.626 18.8767 208.036 19.1475C208.443 19.2847 208.988 19.42 209.398 19.42ZM207.764 13.4286H209.669C210.215 13.4286 210.76 13.5658 211.031 13.8384C211.302 14.111 211.441 14.3836 211.441 14.7916C211.441 15.2014 211.304 15.4721 211.169 15.6093C211.033 15.8801 210.76 16.0173 210.488 16.1527L211.579 17.6528H210.488L209.534 16.2917H208.853V17.6528H207.899V13.4305H207.764V13.4286ZM209.671 15.4703C209.944 15.4703 210.081 15.4703 210.217 15.3349C210.352 15.1995 210.352 15.0642 210.352 14.927C210.352 14.6562 210.352 14.5171 210.217 14.5171C210.081 14.3818 209.946 14.3818 209.671 14.3818H208.717V15.6075H209.671V15.4703Z" fill="#AEAEAE"/>
</g>
<defs>
<clipPath id="clip0_196_10292">
<rect width="212.563" height="38.9416" fill="white" transform="translate(0.926758 0.902344)"/>
</clipPath>
</defs>
</svg>
