<svg width="171" height="32" viewBox="0 0 171 32" fill="none" xmlns="http://www.w3.org/2000/svg">
<g clip-path="url(#clip0_196_10269)">
<path d="M0.833588 1.68481V16.7637V31.8424H4.1703H7.50701V26.9162V21.9897L9.46217 22.0125L11.4171 22.0353L14.2872 26.939L17.157 31.8424H20.9869H24.8168L21.48 26.2707C19.6448 23.2062 18.1546 20.6939 18.1683 20.6879C19.2979 20.1928 20.4623 19.4109 21.2748 18.602C22.5312 17.3512 23.2794 15.9276 23.6969 13.9942C23.9095 13.0095 23.9103 10.4607 23.6984 9.39633C22.86 5.18564 20.0479 2.71907 15.1513 1.89989C14.429 1.77905 13.3369 1.75352 7.57043 1.72187L0.833588 1.68481ZM7.50701 7.55837H10.2451C13.1454 7.55837 13.7363 7.61431 14.7081 7.98126C15.3433 8.22109 16.0968 8.80241 16.4421 9.31885C16.9216 10.0361 17.0732 10.5524 17.1186 11.6235C17.1854 13.202 16.8882 14.0949 15.9982 14.9887C15.394 15.5955 14.8496 15.9044 13.9546 16.1483C13.3598 16.3104 13.0101 16.3323 10.4637 16.367C8.90725 16.3882 7.60527 16.3763 7.57043 16.3406C7.53558 16.3049 7.50701 14.3144 7.50701 11.9171V7.55837Z" fill="#AEAEAE"/>
<path d="M31.0761 16.7712V1.69971H41.2555H51.4348V4.62909V7.55847H44.5923H37.7497V10.6577V13.7569H43.7475H49.7453V16.6863V19.6156H43.7475H37.7497V22.8422V26.0688H42.2269C44.6894 26.0688 46.7042 26.087 46.7042 26.1094C46.7042 26.1473 44.6958 29.9975 44.0129 31.2689L43.7053 31.8415L37.3907 31.842L31.0761 31.8425V16.7712Z" fill="#AEAEAE"/>
<path d="M50.6996 31.738C50.7237 31.6792 54.2765 24.9062 58.5947 16.6869L66.4459 1.74286L70.5229 1.72081C73.7748 1.70322 74.5911 1.72041 74.5563 1.80572C74.5323 1.86455 70.9785 8.63752 66.659 16.8568L58.8054 31.8009L54.7306 31.8229C51.4805 31.8405 50.6647 31.8233 50.6996 31.738Z" fill="#AEAEAE"/>
<path d="M74.7502 23.349V14.8554L78.1821 8.32002C80.0697 4.72555 81.6403 1.78462 81.6724 1.78462C81.7045 1.78462 82.0748 2.27179 82.4953 2.86721C83.2136 3.88424 86.778 8.94765 87.9943 10.6789C88.2978 11.1109 88.5687 11.4628 88.5963 11.461C88.6239 11.4592 90.1671 9.26263 92.0255 6.57979L95.4046 1.70189L98.8892 1.7008L102.374 1.69971V16.7712V31.8426H99.1215H95.8692V22.5026C95.8692 17.3655 95.8407 13.164 95.8058 13.1659C95.771 13.1677 94.1473 15.2708 92.1976 17.8394C89.6417 21.2068 88.6122 22.5027 88.5071 22.4849C88.4269 22.4712 86.7719 20.3791 84.8292 17.8356L81.2971 13.2112L81.2756 22.5269L81.2541 31.8426H78.0021H74.7502V23.349Z" fill="#AEAEAE"/>
<path d="M118.867 1.52979L118.775 1.76351C118.724 1.89194 117.468 5.26372 115.984 9.25659C114.501 13.2495 112.01 19.9475 110.449 24.1412C108.888 28.3348 107.611 31.7831 107.611 31.8042C107.611 31.8253 109.122 31.8422 110.969 31.8418L114.327 31.8413L114.679 30.8442C114.872 30.2958 115.381 28.8442 115.81 27.6183L116.589 25.3896H121.899C124.82 25.3896 127.21 25.3994 127.21 25.4116C127.21 25.4721 129.475 31.7705 129.509 31.8047C129.531 31.8266 131.091 31.8346 132.976 31.8223L136.404 31.8001L134.13 25.6866C132.879 22.3241 130.345 15.5133 128.499 10.5514L125.143 1.52979H122.005H118.867ZM121.885 10.5089C121.932 10.4535 125.107 19.4686 125.1 19.6368C125.099 19.6718 123.653 19.7006 121.888 19.7006C120.122 19.7006 118.677 19.6718 118.676 19.6368C118.674 19.541 121.823 10.5827 121.885 10.5089Z" fill="#AEAEAE"/>
<path d="M139.746 30.676C148.302 16.5938 148.335 16.5382 148.205 16.3386C147.918 15.8994 139.459 1.78064 139.459 1.742C139.459 1.71874 141.161 1.69971 143.242 1.69971H147.024L149.612 6.43078C151.035 9.03288 152.231 11.1727 152.271 11.1859C152.31 11.1991 153.516 9.09881 154.95 6.51852C156.384 3.93822 157.583 1.79801 157.615 1.76249C157.647 1.72696 159.333 1.70786 161.361 1.72003L165.048 1.74216L162.51 5.90273C161.114 8.19105 159.132 11.4388 158.106 13.12C157.08 14.8013 156.203 16.2384 156.158 16.3136C156.072 16.455 156.234 16.7424 158.551 20.5496C159.048 21.3669 160.739 24.1562 162.309 26.748C163.879 29.3399 165.22 31.5469 165.289 31.6524L165.414 31.8444L161.585 31.8223L157.757 31.8002L154.994 26.8356C153.474 24.1052 152.198 21.8601 152.158 21.8466C152.117 21.8331 151.847 22.2522 151.557 22.7779C151.267 23.3036 150.01 25.5487 148.764 27.767L146.497 31.8002L142.767 31.8223L139.036 31.8444L139.746 30.676Z" fill="#AEAEAE"/>
<path d="M168.638 0.691287C168.077 0.697354 167.517 0.924102 167.073 1.36993C165.991 2.45805 166.438 4.45506 167.879 4.96942C168.385 5.15011 169.085 5.13266 169.536 4.9277C170.992 4.26606 171.336 2.43183 170.21 1.33625C169.762 0.900031 169.2 0.68522 168.638 0.691287ZM168.711 1.031C169.353 1.03908 169.961 1.4135 170.301 2.07786C170.43 2.33037 170.479 2.68648 170.454 3.03921C170.428 3.39193 170.328 3.74136 170.164 3.98034C170.029 4.17544 169.763 4.42562 169.576 4.53383C168.929 4.90756 168.268 4.87424 167.648 4.43614C166.518 3.63805 166.619 1.92001 167.836 1.25462C168.12 1.0992 168.419 1.02733 168.711 1.031Z" fill="#AEAEAE"/>
<path d="M167.842 1.69922V2.92996V4.16096H168.264V3.14212H168.557C168.895 3.14212 169.056 3.33411 169.144 3.84259C169.168 3.97706 169.207 4.16303 169.267 4.16243L169.413 4.16096L169.593 4.16096C169.62 4.13799 169.599 4.06907 169.583 4.01227C169.559 3.93057 169.499 3.7027 169.448 3.50583C169.398 3.30896 169.386 3.17785 169.283 3.09547C169.225 3.04941 169.118 2.97544 169.13 2.93905C169.142 2.90265 169.196 2.88494 169.299 2.80329C169.615 2.55326 169.619 2.12156 169.307 1.87511C169.128 1.7333 168.964 1.69922 168.463 1.69922L167.842 1.69922ZM168.264 1.95386H168.559C168.863 1.95386 169.192 2.18962 169.192 2.40746C169.192 2.47025 169.123 2.58484 169.038 2.6621C168.953 2.73937 168.744 2.80277 168.574 2.80277H168.264V2.37819V1.95386Z" fill="#AEAEAE"/>
</g>
<defs>
<clipPath id="clip0_196_10269">
<rect width="170.045" height="31.1533" fill="white" transform="translate(0.833496 0.69043)"/>
</clipPath>
</defs>
</svg>
