<svg width="135" height="36" viewBox="0 0 135 36" fill="none" xmlns="http://www.w3.org/2000/svg">
<path d="M104.746 0.0185547C106.679 0.0185547 108.247 1.59047 108.247 3.52957C108.247 5.46866 106.679 7.04058 104.746 7.04058C102.812 7.04058 101.245 5.46866 101.245 3.52957C101.245 1.59047 102.812 0.0185547 104.746 0.0185547Z" fill="#AEAEAE"/>
<path d="M36.0195 35.5524C30.924 35.5524 28.4002 32.6314 28.4002 27.7639V14.913H23.7894V9.89991H28.4002V3.47449L34.4663 1.96509V9.89991H40.8233V14.913H34.4663V27.2286C34.4663 29.1756 35.34 30.0028 37.2811 30.0028C38.5428 30.0028 39.5617 29.9549 41.2118 29.76V34.8709C39.5133 35.3091 37.8148 35.5524 36.0195 35.5524Z" fill="#AEAEAE"/>
<path d="M57.6896 15.3022C53.4194 15.3022 51.1867 18.3683 51.1867 22.4577V35.2109H45.0722V9.89944H50.2161L50.7498 13.6957C51.9152 10.7752 54.9237 9.55835 57.8838 9.55835C58.5149 9.55835 59.146 9.6069 59.7765 9.70462V15.5456C59.097 15.3999 58.3691 15.3022 57.6896 15.3022Z" fill="#AEAEAE"/>
<path d="M79.4879 35.2108L79.051 31.9013C77.8378 34.3836 75.0229 35.8439 71.8202 35.8439C66.433 35.8439 63.0844 32.1933 63.0844 26.7899V9.89941H69.1505V25.4268C69.1505 28.3964 70.3159 30.2463 73.5186 30.2463C74.9261 30.2463 75.8967 29.7104 76.6246 28.9802C78.0804 27.6171 78.4689 25.3296 78.4689 23.2856V9.89941H84.5349V35.2108H79.4879Z" fill="#AEAEAE"/>
<path d="M95.3981 35.5032C91.2726 35.5032 88.5067 33.5077 88.5067 28.6888V0.0180664H94.6212V27.6667C94.6212 29.127 94.9606 30.0999 97.0476 30.0999C97.5819 30.0999 97.7271 30.0519 98.0665 30.0519V35.1622C96.8539 35.4061 96.6113 35.5032 95.3981 35.5032Z" fill="#AEAEAE"/>
<path d="M101.664 35.2109V9.89941H107.827V35.2109H101.664Z" fill="#AEAEAE"/>
<path d="M126.813 23.9662L120.406 24.453C118.563 24.5992 116.767 25.7184 116.767 27.7631C116.767 29.7101 118.465 30.927 120.358 30.927C124.144 30.927 126.813 28.8823 126.813 25.1345V23.9662ZM131.909 35.6002C129.288 35.6002 127.832 33.9451 127.638 32.0467C126.473 34.0914 123.561 35.8436 119.97 35.8436C113.952 35.8436 110.846 32.0467 110.846 27.9094C110.846 23.0905 114.583 20.3156 119.388 19.9745L126.813 19.4392V17.8819C126.813 15.4967 125.988 13.8902 122.542 13.8902C119.728 13.8902 118.077 15.1556 117.932 17.4923H112.06C112.399 11.797 116.913 9.26611 122.542 9.26611C126.862 9.26611 130.55 10.6292 132.005 14.4255C132.637 16.032 132.733 17.8327 132.733 19.537V28.9314C132.733 30.0991 133.121 30.5379 134.141 30.5379C134.529 30.5379 134.917 30.4402 134.917 30.4402V34.9186C133.898 35.3568 133.365 35.6002 131.909 35.6002Z" fill="#AEAEAE"/>
<path d="M9.76564 14.4628C7.44935 14.4628 5.57235 12.5801 5.57235 10.2569C5.57235 7.93419 7.44935 6.05154 9.76564 6.05154C12.0813 6.05154 13.9589 7.93419 13.9589 10.2569C13.9589 12.5801 12.0813 14.4628 9.76564 14.4628ZM9.73599 0.0175781C4.16491 0.0485309 0.568848 3.79867 0.568848 9.46908C0.568848 14.163 3.62154 18.1771 5.36178 24.2797C6.35776 27.7743 6.89387 32.0524 7.17463 35.2108H12.2973C12.5781 32.0524 13.1142 27.7743 14.1102 24.2797C15.8504 18.1771 18.9031 14.163 18.9031 9.46908C18.9031 3.79867 15.3071 0.0491377 9.73599 0.0175781Z" fill="#AEAEAE"/>
</svg>
