<svg width="144" height="38" viewBox="0 0 144 38" fill="none" xmlns="http://www.w3.org/2000/svg">
<g clip-path="url(#clip0_196_10251)">
<path d="M71.8164 7.29499C69.2372 5.56367 65.7645 4.91884 61.1389 4.91884L52.3908 4.91455V34.387L61.3221 34.3914C64.502 34.3914 67.2352 33.9753 69.5207 33.0419C71.8164 32.0894 73.6113 30.5772 74.8284 28.3976C76.0447 26.2197 76.6812 23.3815 76.6812 19.7709C76.6812 16.6503 76.2953 14.0976 75.4943 12.0414C74.6937 9.98176 73.4703 8.41956 71.8164 7.29499ZM69.4739 24.8696C69.0425 26.3395 68.3529 27.4603 67.2812 28.2412C66.1032 29.0864 64.3252 29.5471 62.1287 29.5471H58.9976L58.9929 9.76459L61.6214 9.76749C64.2089 9.77682 66.1245 10.1974 67.4138 11.1621C68.356 11.8767 69.0121 12.8745 69.4413 14.2355C69.8699 15.5993 70.0604 17.3183 70.0604 19.4479C70.0605 21.5786 69.9046 23.396 69.4739 24.8696Z" fill="#AEAEAE"/>
<path d="M71.8164 7.29499C69.2372 5.56367 65.7645 4.91884 61.1389 4.91884L52.3908 4.91455V34.387L61.3221 34.3914C64.502 34.3914 67.2352 33.9753 69.5207 33.0419C71.8164 32.0894 73.6113 30.5772 74.8284 28.3976C76.0447 26.2197 76.6812 23.3815 76.6812 19.7709C76.6812 16.6503 76.2953 14.0976 75.4943 12.0414C74.6937 9.98176 73.4703 8.41956 71.8164 7.29499ZM69.4739 24.8696C69.0425 26.3395 68.3529 27.4603 67.2812 28.2412C66.1032 29.0864 64.3252 29.5471 62.1287 29.5471H58.9976L58.9929 9.76459L61.6214 9.76749C64.2089 9.77682 66.1245 10.1974 67.4138 11.1621C68.356 11.8767 69.0121 12.8745 69.4413 14.2355C69.8699 15.5993 70.0604 17.3183 70.0604 19.4479C70.0605 21.5786 69.9046 23.396 69.4739 24.8696Z" fill="#AEAEAE"/>
<path d="M80.8283 34.387H87.4433V21.8265H95.0893V17.0245H87.4433V9.76598L99.2551 9.76737V4.91455H80.8283V34.387Z" fill="#AEAEAE"/>
<path d="M103.442 34.387H110.066V4.91455H103.442C103.442 4.91455 103.392 34.387 103.442 34.387Z" fill="#AEAEAE"/>
<path d="M139.172 4.91455H132.523V21.8265L120.215 4.91455H114.913V34.387H121.566V17.0291L133.74 34.387H139.172V4.91455Z" fill="#AEAEAE"/>
<path d="M80.8283 34.387H87.4433V21.8265H95.0893V17.0245H87.4433V9.76598L99.2551 9.76737V4.91455H80.8283V34.387Z" fill="#AEAEAE"/>
<path d="M139.172 4.91455H132.523V21.8265L120.215 4.91455H114.913V34.387H121.566V17.0291L133.74 34.387H139.172V4.91455Z" fill="#AEAEAE"/>
<path d="M27.4012 35.5103C26.8451 35.2833 26.2871 34.8504 24.7905 32.2862L21.8082 27.2543L18.2928 21.3236L17.9948 20.8192C18.1668 20.77 18.3356 20.7133 18.5029 20.6567C22.5382 19.2485 24.8937 15.4894 24.8937 10.1256C24.8937 7.47502 23.8404 5.02698 21.829 3.19515C21.5358 2.94166 21.2329 2.69989 20.9088 2.47906C18.2237 0.676612 14.6076 0.00416183 9.7908 0.00416183L0.68158 0H0.677242V0.00201786H0.543143C-0.049026 -0.00517075 -0.104921 0.34127 0.127336 0.655425C0.337037 0.934519 0.574127 1.3077 0.677242 2.25546V31.8464C0.574623 33.0516 0.333814 33.4355 0.127336 33.7128C-0.1074 34.0261 -0.00366517 34.3848 0.58838 34.3773H7.3335V21.8259H10.3991L12.5527 25.5487L15.261 30.2321L16.5774 32.5089C18.2502 35.3738 19.714 36.9617 22.628 37.3007C23.0256 37.3537 23.4496 37.3795 23.9066 37.3839C23.9422 37.3839 24.3224 37.3839 24.3576 37.3839C25.4056 37.3839 26.4287 36.9559 27.0656 36.6805C27.1523 36.6477 27.2364 36.6136 27.32 36.5758C28.0845 36.2309 27.8728 35.7014 27.4012 35.5103ZM11.6186 17.0239H7.55957H7.33326V4.91613H11.6186C13.7398 4.91613 15.3572 5.19598 16.5685 6.31576C17.0161 6.74708 17.3621 7.26819 17.6074 7.89726C17.9047 8.65988 18.0544 9.5775 18.0544 10.6832C18.0545 12.2916 17.9094 17.0239 11.6186 17.0239Z" fill="#AEAEAE"/>
<path d="M36.0753 21.83H43.7381V17.0288H36.0753V9.75187H47.8818V4.91797H29.4471V34.39H47.8854V29.5035H36.0753V21.83Z" fill="#AEAEAE"/>
<path d="M141.821 31.4436C142.605 31.4436 143.304 32.0183 143.304 32.9105C143.304 33.8066 142.605 34.3851 141.821 34.3851C141.036 34.3851 140.337 33.8066 140.337 32.9105C140.337 32.0183 141.036 31.4436 141.821 31.4436ZM141.821 34.07C142.42 34.07 142.911 33.5829 142.911 32.9105C142.911 32.2426 142.42 31.7587 141.821 31.7587C141.214 31.7587 140.732 32.2426 140.732 32.9105C140.732 33.5829 141.214 34.07 141.821 34.07ZM141.245 32.0851H141.856C142.262 32.0851 142.49 32.2142 142.49 32.5728C142.49 32.8747 142.3 32.9931 142.064 33.0125L142.497 33.7322H142.161L141.767 33.0283H141.566V33.7322H141.245V32.0851H141.245ZM141.566 32.7725H141.852C142.037 32.7725 142.169 32.7454 142.169 32.5444C142.169 32.3717 141.983 32.3402 141.836 32.3402H141.566V32.7725H141.566Z" fill="#AEAEAE"/>
</g>
<defs>
<clipPath id="clip0_196_10251">
<rect width="143.305" height="37.3839" fill="white"/>
</clipPath>
</defs>
</svg>
