<svg width="172" height="36" viewBox="0 0 172 36" fill="none" xmlns="http://www.w3.org/2000/svg">
<path d="M107.441 24.2623C107.441 17.6336 112.791 12.7247 119.334 12.7247C125.815 12.7247 131.166 17.6336 131.166 24.2623C131.166 30.909 125.815 35.8261 119.334 35.8261C112.791 35.8179 107.441 30.909 107.441 24.2623ZM67.0432 4.84186V6.18553C67.0432 6.68716 66.9357 6.84013 66.8377 7.04547L54.1721 28.5979C54.1459 28.6337 54.1625 28.6875 54.2176 28.6875H67.7065V35.1013H43.4163V33.8472C43.4163 33.2918 43.488 33.176 43.7928 32.6206L56.315 11.3631C56.3412 11.319 56.3233 11.2735 56.2695 11.2735H43.801V4.84186H67.0432ZM145.085 35.093H138.597L131.542 13.2801H138.515L140.533 19.8827C141.204 22.0684 142.334 26.171 142.334 26.171C142.352 26.2248 142.423 26.2151 142.432 26.171C142.432 26.171 143.597 21.9871 144.262 19.8827L146.377 13.2801H151.522L153.601 19.8827C154.3 22.14 155.394 26.171 155.394 26.171C155.41 26.2248 155.474 26.2248 155.501 26.171C155.501 26.171 156.631 22.0946 157.302 19.8827L159.32 13.2801H165.799L158.79 35.093H152.418L150.679 29.6108C150.015 27.461 148.841 23.2866 148.841 23.2866C148.823 23.2329 148.751 23.2329 148.743 23.2866C148.743 23.2866 147.568 27.3796 146.861 29.575L145.085 35.093ZM79.2607 35.093H72.206V13.2801H79.2607V35.093ZM84.611 1.75073H91.6657V35.093H84.611V1.75073ZM96.8905 1.75073H103.945V35.093H96.8905V1.75073ZM124.399 24.2623C124.399 21.0196 122.077 18.8064 119.334 18.8064C116.53 18.8064 114.207 21.0196 114.207 24.2623C114.207 27.5326 116.53 29.7169 119.334 29.7169C122.077 29.7183 124.399 27.5326 124.399 24.2623ZM169.313 8.04874C167.861 8.04874 166.678 9.23117 166.678 10.6823C166.678 12.1335 167.861 13.3159 169.313 13.3159C170.765 13.3159 171.948 12.1335 171.948 10.6823C171.948 9.23117 170.765 8.04874 169.313 8.04874ZM169.313 12.806C168.139 12.806 167.188 11.8565 167.188 10.6823C167.188 9.50955 168.138 8.56003 169.313 8.56003C170.486 8.56003 171.438 9.50955 171.438 10.6823C171.438 11.8565 170.488 12.806 169.313 12.806ZM169.466 9.10576C170.075 9.10576 170.514 9.55365 170.514 10.1724C170.514 10.6465 170.255 11.0145 169.869 11.1661L170.47 12.1514H169.896L169.339 11.2377H168.847V12.1514H168.345V9.10576H169.466ZM169.438 9.55365H168.847V10.7898H169.438C169.771 10.7898 170.012 10.5294 170.012 10.1724C170.012 9.81412 169.771 9.55365 169.438 9.55365ZM75.7292 2.35159C77.9245 2.35159 79.7447 4.12524 79.7447 6.31094C79.7447 8.49663 77.9245 10.2703 75.7292 10.2703C73.5325 10.2703 71.7137 8.49663 71.7137 6.31094C71.7123 4.12524 73.5325 2.35159 75.7292 2.35159Z" fill="#AEAEAE"/>
<path d="M9.42768 31.4126C9.29339 31.4845 9.18403 31.4665 9.07605 31.3586L6.07065 27.7795C5.99036 27.6799 5.98067 27.6259 6.08865 27.4737C8.41157 24.0744 13.1529 18.777 16.1763 16.5385C16.2303 16.5025 16.2123 16.4568 16.1486 16.4845C12.9993 17.5097 4.04675 21.3586 0.735413 23.2291V35.386H32.9587V23.6787C28.5675 24.4245 15.4122 28.337 9.42768 31.4126ZM22.5291 9.54206C22.691 9.50609 22.763 9.56004 22.8613 9.66796C23.4192 10.2878 25.2022 12.464 25.6867 13.0576C25.7767 13.1655 25.7144 13.2831 25.6424 13.3453C22.0432 16.1511 18.0383 20.1259 15.8067 22.9676C15.7624 23.0313 15.7984 23.0313 15.8344 23.0216C19.7216 21.3489 28.8541 18.6774 32.967 17.9317V12.7255L16.8699 0L0.745103 12.7158V18.4076C5.73841 15.4413 17.2921 10.8453 22.5291 9.54206Z" fill="#AEAEAE"/>
</svg>
