<svg width="72" height="72" viewBox="0 0 72 72" fill="none" xmlns="http://www.w3.org/2000/svg">
<g filter="url(#filter0_d_196_10357)">
<circle cx="36" cy="31" r="22" fill="#FFA800"/>
<path d="M35.999 26.3769C33.445 26.3769 31.376 28.4469 31.376 30.9999C31.376 33.5539 33.445 35.6239 35.999 35.6239C38.551 35.6239 40.622 33.5539 40.622 30.9999C40.622 28.4469 38.551 26.3769 35.999 26.3769ZM35.999 34.0039C34.34 34.0039 32.995 32.6589 32.995 31.0009C32.995 29.3419 34.34 27.9979 35.999 27.9979C37.658 27.9979 39.001 29.3419 39.001 31.0009C39.001 32.6589 37.658 34.0039 35.999 34.0039Z" fill="white"/>
<path d="M40.806 27.2849C41.4014 27.2849 41.884 26.8022 41.884 26.2069C41.884 25.6115 41.4014 25.1289 40.806 25.1289C40.2107 25.1289 39.728 25.6115 39.728 26.2069C39.728 26.8022 40.2107 27.2849 40.806 27.2849Z" fill="white"/>
<path d="M44.533 25.1109C44.064 23.9019 43.109 22.9459 41.9 22.4789C41.201 22.2159 40.462 22.0749 39.714 22.0589C38.751 22.0169 38.446 22.0049 36.004 22.0049C33.562 22.0049 33.249 22.0049 32.294 22.0589C31.548 22.0739 30.809 22.2149 30.11 22.4789C28.9 22.9459 27.945 23.9019 27.477 25.1109C27.214 25.8109 27.073 26.5489 27.058 27.2969C27.015 28.2589 27.002 28.5639 27.002 31.0069C27.002 33.4489 27.002 33.7599 27.058 34.7169C27.073 35.4649 27.214 36.2029 27.477 36.9039C27.946 38.1119 28.901 39.0679 30.111 39.5359C30.807 39.8079 31.546 39.9619 32.296 39.9859C33.259 40.0279 33.564 40.0409 36.006 40.0409C38.448 40.0409 38.761 40.0409 39.716 39.9859C40.463 39.9709 41.202 39.8289 41.902 39.5669C43.111 39.0979 44.066 38.1429 44.535 36.9339C44.798 36.2339 44.939 35.4959 44.954 34.7479C44.997 33.7859 45.01 33.4809 45.01 31.0379C45.01 28.5949 45.01 28.2849 44.954 27.3279C44.941 26.5699 44.801 25.8189 44.533 25.1109ZM43.315 34.6429C43.308 35.2189 43.204 35.7899 43.004 36.3309C42.699 37.1179 42.078 37.7399 41.292 38.0419C40.757 38.2409 40.193 38.3449 39.622 38.3529C38.672 38.3969 38.404 38.4079 35.968 38.4079C33.53 38.4079 33.281 38.4079 32.313 38.3529C31.744 38.3459 31.178 38.2409 30.644 38.0419C29.855 37.7409 29.23 37.1189 28.925 36.3309C28.729 35.7969 28.623 35.2319 28.614 34.6619C28.571 33.7119 28.561 33.4439 28.561 31.0079C28.561 28.5709 28.561 28.3219 28.614 27.3529C28.621 26.7769 28.725 26.2069 28.925 25.6659C29.23 24.8769 29.855 24.2559 30.644 23.9539C31.178 23.7559 31.744 23.6509 32.313 23.6429C33.264 23.5999 33.531 23.5879 35.968 23.5879C38.405 23.5879 38.655 23.5879 39.622 23.6429C40.193 23.6499 40.757 23.7549 41.292 23.9539C42.078 24.2569 42.699 24.8789 43.004 25.6659C43.2 26.1999 43.306 26.7649 43.315 27.3349C43.358 28.2859 43.369 28.5529 43.369 30.9899C43.369 33.4259 43.369 33.6879 43.326 34.6439H43.315V34.6429Z" fill="white"/>
</g>
<defs>
<filter id="filter0_d_196_10357" x="0" y="0" width="72" height="72" filterUnits="userSpaceOnUse" color-interpolation-filters="sRGB">
<feFlood flood-opacity="0" result="BackgroundImageFix"/>
<feColorMatrix in="SourceAlpha" type="matrix" values="0 0 0 0 0 0 0 0 0 0 0 0 0 0 0 0 0 0 127 0" result="hardAlpha"/>
<feOffset dy="5"/>
<feGaussianBlur stdDeviation="7"/>
<feColorMatrix type="matrix" values="0 0 0 0 1 0 0 0 0 0.658824 0 0 0 0 0 0 0 0 0.2 0"/>
<feBlend mode="normal" in2="BackgroundImageFix" result="effect1_dropShadow_196_10357"/>
<feBlend mode="normal" in="SourceGraphic" in2="effect1_dropShadow_196_10357" result="shape"/>
</filter>
</defs>
</svg>
