<svg width="54" height="20" viewBox="0 0 54 20" fill="none" xmlns="http://www.w3.org/2000/svg">
<g clip-path="url(#clip0_196_10390)">
<path d="M6.39984 3.3335H2.2515C2.11416 3.33341 1.98131 3.38222 1.87689 3.47113C1.77246 3.56003 1.70332 3.6832 1.68192 3.81842L0.00414513 14.4221C-0.00356813 14.4713 -0.000491266 14.5216 0.0131624 14.5695C0.026816 14.6174 0.0507223 14.6618 0.0832362 14.6996C0.11575 14.7374 0.156099 14.7678 0.201504 14.7885C0.246909 14.8093 0.296291 14.82 0.346251 14.82H2.32671C2.46413 14.82 2.59705 14.7711 2.70149 14.6821C2.80593 14.5931 2.87502 14.4698 2.89628 14.3344L3.34878 11.4745C3.37003 11.3392 3.43903 11.216 3.54334 11.127C3.64766 11.038 3.78043 10.989 3.91775 10.9889H5.23098C7.96359 10.9889 9.54067 9.6708 9.95254 7.05872C10.1381 5.91594 9.96042 5.01804 9.4236 4.38921C8.83402 3.6987 7.78828 3.3335 6.39984 3.3335ZM6.87843 7.20626C6.65157 8.69006 5.51425 8.69006 4.41453 8.69006H3.78855L4.22771 5.91896C4.24056 5.83789 4.28202 5.76406 4.34463 5.71074C4.40723 5.65742 4.48687 5.62813 4.56921 5.62813H4.85612C5.60523 5.62813 6.31189 5.62813 6.67705 6.0538C6.8948 6.30775 6.96153 6.68505 6.87843 7.20626ZM18.8 7.15849H16.8135C16.7311 7.15849 16.6515 7.18778 16.5889 7.2411C16.5263 7.29442 16.4848 7.36825 16.472 7.44932L16.384 8.00318L16.2451 7.80244C15.8151 7.18026 14.8561 6.97226 13.8989 6.97226C11.7037 6.97226 9.8288 8.62959 9.46364 10.9545C9.27378 12.1142 9.5437 13.2231 10.2037 13.9964C10.809 14.7075 11.6752 15.0038 12.7058 15.0038C14.4745 15.0038 15.4554 13.8701 15.4554 13.8701L15.3668 14.4203C15.3589 14.4695 15.3618 14.5198 15.3753 14.5678C15.3888 14.6157 15.4126 14.6602 15.445 14.6982C15.4774 14.7361 15.5176 14.7666 15.563 14.7875C15.6083 14.8084 15.6577 14.8193 15.7077 14.8194H17.4971C17.6345 14.8194 17.7674 14.7705 17.8719 14.6815C17.9763 14.5925 18.0454 14.4692 18.0667 14.3338L19.1403 7.55635C19.1482 7.50726 19.1453 7.45705 19.1318 7.40919C19.1184 7.36132 19.0946 7.31694 19.0623 7.27911C19.0299 7.24128 18.9897 7.2109 18.9444 7.19008C18.8991 7.16925 18.8499 7.15847 18.8 7.15849ZM16.031 11.0125C15.8393 12.1438 14.9386 12.9032 13.7897 12.9032C13.2129 12.9032 12.7519 12.7188 12.4559 12.3693C12.1623 12.0223 12.0507 11.5283 12.1441 10.978C12.323 9.85642 13.2389 9.0722 14.3702 9.0722C14.9343 9.0722 15.3929 9.25903 15.695 9.61154C15.9976 9.96768 16.1177 10.4647 16.031 11.0125ZM29.3798 7.15849H27.3836C27.2895 7.15864 27.1968 7.18168 27.1136 7.22562C27.0304 7.26956 26.9592 7.33306 26.9062 7.41063L24.153 11.4533L22.986 7.56844C22.9501 7.44995 22.877 7.34611 22.7774 7.27228C22.6777 7.19845 22.5569 7.15855 22.4328 7.15849H20.4711C20.416 7.15834 20.3617 7.17131 20.3127 7.19631C20.2637 7.22131 20.2214 7.25762 20.1893 7.30222C20.1572 7.34681 20.1362 7.39841 20.1282 7.45271C20.1201 7.50701 20.1252 7.56244 20.1429 7.61439L22.3418 14.0466L20.2746 16.9556C20.2378 17.0072 20.216 17.0678 20.2116 17.1309C20.2071 17.194 20.2202 17.2571 20.2493 17.3133C20.2784 17.3695 20.3225 17.4166 20.3767 17.4495C20.4309 17.4824 20.4932 17.4998 20.5566 17.4998H22.5504C22.6435 17.4999 22.7353 17.4775 22.8178 17.4345C22.9003 17.3916 22.9711 17.3293 23.0242 17.2531L29.6637 7.69965C29.6997 7.64796 29.7208 7.58744 29.7247 7.52465C29.7287 7.46186 29.7153 7.39919 29.6861 7.34344C29.6568 7.28768 29.6128 7.24097 29.5588 7.20837C29.5048 7.17577 29.4429 7.15852 29.3798 7.15849Z" fill="#253B80"/>
<path d="M35.9891 3.33386H31.8401C31.7029 3.33391 31.5702 3.38279 31.4659 3.47168C31.3616 3.56058 31.2925 3.68366 31.2711 3.81878L29.5934 14.4225C29.5856 14.4716 29.5885 14.5218 29.6021 14.5697C29.6156 14.6175 29.6394 14.6619 29.6718 14.6997C29.7042 14.7375 29.7444 14.7679 29.7898 14.7887C29.8351 14.8095 29.8844 14.8203 29.9343 14.8203H32.0633C32.1594 14.8202 32.2522 14.7859 32.3252 14.7236C32.3981 14.6613 32.4464 14.5751 32.4612 14.4805L32.9374 11.4748C32.9586 11.3396 33.0276 11.2164 33.132 11.1273C33.2363 11.0383 33.369 10.9894 33.5064 10.9893H34.819C37.5522 10.9893 39.1287 9.67115 39.5411 7.05908C39.7274 5.9163 39.5484 5.0184 39.0116 4.38957C38.4226 3.69906 37.3775 3.33386 35.9891 3.33386ZM36.4676 7.20662C36.2414 8.69042 35.1041 8.69042 34.0037 8.69042H33.3784L33.8181 5.91932C33.8307 5.83825 33.872 5.76435 33.9346 5.71101C33.9971 5.65766 34.0767 5.62839 34.159 5.62849H34.4459C35.1944 5.62849 35.9017 5.62849 36.2669 6.05416C36.4846 6.30811 36.5507 6.68541 36.4676 7.20662ZM48.3886 7.15885H46.4033C46.321 7.15862 46.2413 7.18785 46.1787 7.24122C46.1162 7.29459 46.0749 7.36856 46.0624 7.44968L45.9745 8.00354L45.8349 7.8028C45.4049 7.18062 44.4465 6.97262 43.4893 6.97262C41.2941 6.97262 39.4198 8.62995 39.0547 10.9548C38.8654 12.1145 39.1341 13.2235 39.7941 13.9968C40.4007 14.7079 41.2656 15.0041 42.2962 15.0041C44.065 15.0041 45.0458 13.8704 45.0458 13.8704L44.9572 14.4207C44.9493 14.4699 44.9523 14.5204 44.9658 14.5684C44.9794 14.6165 45.0033 14.661 45.0358 14.699C45.0683 14.7369 45.1087 14.7674 45.1543 14.7882C45.1998 14.8091 45.2493 14.8198 45.2993 14.8197H47.0881C47.2254 14.8196 47.3582 14.7707 47.4625 14.6817C47.5668 14.5926 47.6358 14.4694 47.6571 14.3342L48.7313 7.55671C48.7389 7.50747 48.7358 7.45717 48.722 7.40926C48.7083 7.36136 48.6843 7.31698 48.6518 7.27918C48.6192 7.24139 48.5788 7.21106 48.5334 7.19029C48.488 7.16952 48.4386 7.15879 48.3886 7.15885ZM45.6196 11.0129C45.4291 12.1442 44.5272 12.9036 43.3783 12.9036C42.8027 12.9036 42.3405 12.7192 42.0445 12.3697C41.7509 12.0226 41.6405 11.5286 41.7327 10.9784C41.9128 9.85678 42.8276 9.07255 43.9588 9.07255C44.5229 9.07255 44.9815 9.25939 45.2836 9.6119C45.5875 9.96804 45.7076 10.4651 45.6196 11.0129ZM50.7306 3.62469L49.0279 14.4225C49.0201 14.4716 49.0231 14.5218 49.0367 14.5697C49.0502 14.6175 49.074 14.6619 49.1064 14.6997C49.1388 14.7375 49.179 14.7679 49.2243 14.7887C49.2696 14.8095 49.3189 14.8203 49.3688 14.8203H51.0806C51.3651 14.8203 51.6065 14.6147 51.6502 14.3348L53.3291 3.73171C53.3369 3.68256 53.334 3.63232 53.3204 3.58442C53.3069 3.53653 53.2831 3.49212 53.2507 3.45426C53.2183 3.4164 53.1781 3.38598 53.1328 3.36509C53.0875 3.3442 53.0382 3.33334 52.9883 3.33325H51.0715C50.9892 3.33354 50.9097 3.36303 50.8472 3.41643C50.7848 3.46984 50.7434 3.54366 50.7306 3.62469Z" fill="#179BD7"/>
</g>
<defs>
<clipPath id="clip0_196_10390">
<rect width="53.3333" height="20" fill="white"/>
</clipPath>
</defs>
</svg>
