<svg width="44" height="20" viewBox="0 0 44 20" fill="none" xmlns="http://www.w3.org/2000/svg">
<g clip-path="url(#clip0_196_10394)">
<path d="M19.111 17.2952H15.6006L17.7962 3.58154H21.3064L19.111 17.2952Z" fill="#00579F"/>
<path d="M31.8361 3.9171C31.1437 3.63962 30.0455 3.33325 28.6876 3.33325C25.2211 3.33325 22.78 5.20055 22.765 7.87023C22.7362 9.83991 24.5128 10.9339 25.8415 11.5907C27.1996 12.2618 27.6613 12.6998 27.6613 13.298C27.6474 14.2167 26.5638 14.6402 25.5532 14.6402C24.1517 14.6402 23.4008 14.4219 22.2596 13.9107L21.7974 13.6916L21.3062 16.7701C22.1295 17.149 23.6463 17.4852 25.2211 17.4999C28.9044 17.4999 31.3023 15.6615 31.3307 12.8165C31.3447 11.2554 30.4066 10.0592 28.3842 9.08175C27.1564 8.45427 26.4045 8.03117 26.4045 7.38915C26.4189 6.8055 27.0405 6.20769 28.4264 6.20769C29.5676 6.17841 30.406 6.4555 31.0412 6.73279L31.3587 6.87841L31.8361 3.9171Z" fill="#00579F"/>
<path d="M36.5016 12.437C36.7907 11.6491 37.9031 8.59999 37.9031 8.59999C37.8885 8.62927 38.1916 7.79761 38.3649 7.28706L38.6103 8.46871C38.6103 8.46871 39.275 11.7513 39.4194 12.437C38.8707 12.437 37.195 12.437 36.5016 12.437ZM40.8346 3.58154H38.1194C37.2821 3.58154 36.646 3.82935 36.2847 4.71937L31.0706 17.2951H34.7539C34.7539 17.2951 35.3603 15.6025 35.4906 15.2379C35.8947 15.2379 39.4777 15.2379 39.9975 15.2379C40.0983 15.7194 40.4164 17.2951 40.4164 17.2951H43.6666L40.8346 3.58154Z" fill="#00579F"/>
<path d="M12.6687 3.58154L9.23096 12.933L8.85531 11.0364C8.21974 8.84799 6.22646 6.47033 4.00208 5.2881L7.15093 17.2807H10.863L16.3806 3.58154H12.6687Z" fill="#00579F"/>
<path d="M6.03877 3.58301H0.391031L0.333252 3.8601C4.73884 4.99812 7.65657 7.74129 8.85534 11.0384L7.62759 4.73577C7.42546 3.8599 6.80429 3.6119 6.03877 3.58301Z" fill="#FAA61A"/>
</g>
<defs>
<clipPath id="clip0_196_10394">
<rect width="43.3333" height="20" fill="white" transform="translate(0.333313)"/>
</clipPath>
</defs>
</svg>
